<svg width="23" height="20" viewBox="0 0 23 20" fill="none" xmlns="http://www.w3.org/2000/svg">
<path d="M20.3401 2.60987C19.8294 2.09888 19.2229 1.69352 18.5555 1.41696C17.888 1.14039 17.1726 0.998047 16.4501 0.998047C15.7276 0.998047 15.0122 1.14039 14.3448 1.41696C13.6773 1.69352 13.0709 2.09888 12.5601 2.60987L11.5001 3.66987L10.4401 2.60987C9.40843 1.57818 8.00915 0.998582 6.55012 0.998582C5.09109 0.998582 3.69181 1.57818 2.66012 2.60987C1.62843 3.64156 1.04883 5.04084 1.04883 6.49987C1.04883 7.95891 1.62843 9.35818 2.66012 10.3899L3.72012 11.4499L11.5001 19.2299L19.2801 11.4499L20.3401 10.3899C20.8511 9.87912 21.2565 9.27269 21.533 8.60523C21.8096 7.93777 21.9519 7.22236 21.9519 6.49987C21.9519 5.77738 21.8096 5.06198 21.533 4.39452C21.2565 3.72706 20.8511 3.12063 20.3401 2.60987Z" stroke="#676767" stroke-width="1.5" stroke-linecap="round" stroke-linejoin="round"/>
</svg>
