<svg width="16" height="16" viewBox="0 0 16 16" fill="none" xmlns="http://www.w3.org/2000/svg">
<path d="M7.85541 5.64933C6.47825 5.64933 5.35439 6.77321 5.35439 8.15039C5.35439 9.52757 6.47825 10.6515 7.85541 10.6515C9.23256 10.6515 10.3564 9.52757 10.3564 8.15039C10.3564 6.77321 9.23256 5.64933 7.85541 5.64933ZM15.3566 8.15039C15.3566 7.11469 15.366 6.08837 15.3078 5.05455C15.2496 3.85374 14.9757 2.78802 14.0976 1.90992C13.2177 1.02995 12.1539 0.757896 10.9531 0.699732C9.91739 0.641567 8.89109 0.650949 7.85728 0.650949C6.8216 0.650949 5.7953 0.641567 4.7615 0.699732C3.56071 0.757896 2.49501 1.03183 1.61693 1.90992C0.736979 2.78989 0.464925 3.85374 0.406762 5.05455C0.348599 6.09025 0.35798 7.11657 0.35798 8.15039C0.35798 9.18421 0.348599 10.2124 0.406762 11.2462C0.464925 12.447 0.738855 13.5128 1.61693 14.3909C2.49689 15.2708 3.56071 15.5429 4.7615 15.601C5.79718 15.6592 6.82348 15.6498 7.85728 15.6498C8.89296 15.6498 9.91926 15.6592 10.9531 15.601C12.1539 15.5429 13.2196 15.269 14.0976 14.3909C14.9776 13.5109 15.2496 12.447 15.3078 11.2462C15.3678 10.2124 15.3566 9.18609 15.3566 8.15039ZM7.85541 11.9986C5.72588 11.9986 4.00725 10.28 4.00725 8.15039C4.00725 6.02083 5.72588 4.30217 7.85541 4.30217C9.98493 4.30217 11.7036 6.02083 11.7036 8.15039C11.7036 10.28 9.98493 11.9986 7.85541 11.9986ZM11.8612 5.04329C11.364 5.04329 10.9624 4.64177 10.9624 4.14456C10.9624 3.64735 11.364 3.24583 11.8612 3.24583C12.3584 3.24583 12.7599 3.64735 12.7599 4.14456C12.76 4.26262 12.7369 4.37956 12.6918 4.48866C12.6467 4.59777 12.5805 4.6969 12.497 4.78039C12.4135 4.86387 12.3144 4.93007 12.2053 4.97518C12.0962 5.02029 11.9792 5.04344 11.8612 5.04329Z" fill="white"/>
</svg>
