<svg width="16" height="16" viewBox="0 0 16 16" fill="none" xmlns="http://www.w3.org/2000/svg">
<path fill-rule="evenodd" clip-rule="evenodd" d="M5.64402 6.1623H8.42952V7.5498C8.83077 6.7518 9.85977 6.0348 11.4055 6.0348C14.3688 6.0348 15.0723 7.6233 15.0723 10.5378V15.9355H12.0723V11.2015C12.0723 9.5418 11.671 8.6058 10.6495 8.6058C9.23277 8.6058 8.64402 9.61455 8.64402 11.2008V15.9355H5.64402V6.1623ZM0.499766 15.808H3.49977V6.0348H0.499766V15.808ZM3.92952 2.84805C3.92963 3.0995 3.87976 3.34847 3.78281 3.58049C3.68585 3.8125 3.54375 4.02293 3.36477 4.19955C3.00207 4.56001 2.51112 4.76179 1.99977 4.76055C1.48931 4.7602 0.999499 4.55895 0.636266 4.2003C0.457924 4.02308 0.316305 3.81241 0.219523 3.58037C0.122742 3.34833 0.0727 3.09947 0.0722656 2.84805C0.0722656 2.3403 0.274766 1.8543 0.637016 1.4958C0.999929 1.13667 1.48995 0.935322 2.00052 0.935547C2.51202 0.935547 3.00252 1.1373 3.36477 1.4958C3.72627 1.8543 3.92952 2.3403 3.92952 2.84805Z" fill="white"/>
</svg>
