<svg width="23" height="24" viewBox="0 0 23 24" fill="none" xmlns="http://www.w3.org/2000/svg">
<g clip-path="url(#clip0_225_6932)">
<path d="M20.125 10.083C20.125 16.7913 11.5 22.5413 11.5 22.5413C11.5 22.5413 2.875 16.7913 2.875 10.083C2.875 7.79552 3.7837 5.60171 5.4012 3.98421C7.0187 2.36671 9.21251 1.45801 11.5 1.45801C13.7875 1.45801 15.9813 2.36671 17.5988 3.98421C19.2163 5.60171 20.125 7.79552 20.125 10.083Z" stroke="#979797" stroke-width="1.5" stroke-linecap="round" stroke-linejoin="round"/>
<path d="M11.5 12.958C13.0878 12.958 14.375 11.6708 14.375 10.083C14.375 8.49519 13.0878 7.20801 11.5 7.20801C9.91218 7.20801 8.625 8.49519 8.625 10.083C8.625 11.6708 9.91218 12.958 11.5 12.958Z" stroke="#979797" stroke-width="1.5" stroke-linecap="round" stroke-linejoin="round"/>
</g>
<defs>
<clipPath id="clip0_225_6932">
<rect width="23" height="23" fill="white" transform="translate(0 0.5)"/>
</clipPath>
</defs>
</svg>
