<svg width="25" height="25" viewBox="0 0 25 25" fill="none" xmlns="http://www.w3.org/2000/svg">
<path d="M12.8262 13.2051C13.3785 13.2051 13.8262 12.7574 13.8262 12.2051C13.8262 11.6528 13.3785 11.2051 12.8262 11.2051C12.2739 11.2051 11.8262 11.6528 11.8262 12.2051C11.8262 12.7574 12.2739 13.2051 12.8262 13.2051Z" stroke="#F68235" stroke-width="2" stroke-linecap="round" stroke-linejoin="round"/>
<path d="M19.8262 13.2051C20.3785 13.2051 20.8262 12.7574 20.8262 12.2051C20.8262 11.6528 20.3785 11.2051 19.8262 11.2051C19.2739 11.2051 18.8262 11.6528 18.8262 12.2051C18.8262 12.7574 19.2739 13.2051 19.8262 13.2051Z" stroke="#F68235" stroke-width="2" stroke-linecap="round" stroke-linejoin="round"/>
<path d="M5.82617 13.2051C6.37846 13.2051 6.82617 12.7574 6.82617 12.2051C6.82617 11.6528 6.37846 11.2051 5.82617 11.2051C5.27389 11.2051 4.82617 11.6528 4.82617 12.2051C4.82617 12.7574 5.27389 13.2051 5.82617 13.2051Z" stroke="#F68235" stroke-width="2" stroke-linecap="round" stroke-linejoin="round"/>
</svg>
