<svg width="16" height="13" viewBox="0 0 16 13" fill="none" xmlns="http://www.w3.org/2000/svg">
<path d="M15.7851 1.52794C15.2235 1.79037 14.6278 1.96255 14.0178 2.03872C14.6603 1.63322 15.1411 0.995131 15.3706 0.243378C14.7667 0.621545 14.1058 0.887839 13.4166 1.03072C13.1287 0.706787 12.7807 0.448679 12.3943 0.272388C12.008 0.0960982 11.5914 0.00538185 11.1704 0.00586127C9.47098 0.00586127 8.09299 1.4589 8.09299 3.25178C8.09299 3.50594 8.12026 3.75394 8.17285 3.99166C5.61516 3.85626 3.34772 2.56389 1.82986 0.599858C1.55618 1.09525 1.41237 1.65851 1.41318 2.23186C1.41278 2.76627 1.53754 3.29252 1.77637 3.76383C2.01521 4.23515 2.36072 4.63694 2.78222 4.93351C2.29361 4.91714 1.81577 4.77795 1.38844 4.52751C1.38805 4.54107 1.38805 4.55443 1.38805 4.5684C1.38805 6.14061 2.44873 7.4525 3.85633 7.75104C3.40309 7.88046 2.92787 7.89943 2.46665 7.80651C2.85819 9.0958 3.99464 10.0346 5.34128 10.0609C4.25117 10.9632 2.90504 11.4526 1.51935 11.4504C1.27098 11.4504 1.02612 11.4352 0.785156 11.405C2.19224 12.3586 3.82987 12.8648 5.50237 12.863C11.1628 12.863 14.2581 7.91726 14.2581 3.6284C14.2581 3.48786 14.255 3.34753 14.2492 3.20802C14.852 2.74899 15.3721 2.18002 15.7851 1.52794Z" fill="white"/>
</svg>
