<svg width="16" height="11" viewBox="0 0 16 11" fill="none" xmlns="http://www.w3.org/2000/svg">
<path d="M14.9018 1.72042C14.8164 1.40241 14.649 1.1124 14.4163 0.879413C14.1836 0.64643 13.8938 0.478647 13.5759 0.392857C12.4057 0.0781251 7.71484 0.078125 7.71484 0.078125C7.71484 0.078125 3.024 0.0781249 1.85379 0.391183C1.53575 0.476695 1.2458 0.644384 1.01307 0.877411C0.780335 1.11044 0.613012 1.4006 0.527902 1.71875C0.214844 2.89063 0.214844 5.33482 0.214844 5.33482C0.214844 5.33482 0.214844 7.77902 0.527902 8.94922C0.700335 9.59543 1.20926 10.1044 1.85379 10.2768C3.024 10.5915 7.71484 10.5915 7.71484 10.5915C7.71484 10.5915 12.4057 10.5915 13.5759 10.2768C14.2221 10.1044 14.7294 9.59543 14.9018 8.94922C15.2148 7.77902 15.2148 5.33482 15.2148 5.33482C15.2148 5.33482 15.2148 2.89063 14.9018 1.72042ZM6.22489 7.57813V3.09152L10.1088 5.31808L6.22489 7.57813Z" fill="white"/>
</svg>
